<svg xmlns="http://www.w3.org/2000/svg" viewBox="0 0 1200 680" role="img" aria-labelledby="title desc">
  <title id="title">Portfolio Review Dashboard</title>
  <desc id="desc">A stylized dashboard card showing portfolio metrics and chart panels.</desc>
  <defs>
    <linearGradient id="panel" x1="0%" y1="0%" x2="100%" y2="100%">
      <stop offset="0%" stop-color="#10182b"/>
      <stop offset="100%" stop-color="#0a0f1a"/>
    </linearGradient>
  </defs>
  <rect width="1200" height="680" fill="#080b14"/>
  <rect x="72" y="72" width="1056" height="536" rx="12" fill="url(#panel)" stroke="#30363d"/>
  <g font-family="JetBrains Mono, monospace" fill="#e7ecf4">
    <text x="112" y="132" font-size="26">PAPER FUND REVIEW</text>
    <text x="112" y="166" font-size="14" opacity="0.72">POST-WORKSHOP PERFORMANCE SNAPSHOT</text>
  </g>
  <g>
    <rect x="112" y="210" width="212" height="118" fill="#0e1527" stroke="#58a6ff"/>
    <rect x="352" y="210" width="212" height="118" fill="#0e1527" stroke="#58a6ff"/>
    <rect x="592" y="210" width="212" height="118" fill="#0e1527" stroke="#8957e5"/>
    <rect x="832" y="210" width="212" height="118" fill="#0e1527" stroke="#8957e5"/>
  </g>
  <g font-family="JetBrains Mono, monospace">
    <text x="136" y="248" font-size="15" fill="#58a6ff">EQUITY</text>
    <text x="136" y="290" font-size="34" fill="#f6f8fc">$1.24M</text>
    <text x="376" y="248" font-size="15" fill="#58a6ff">DAY CHANGE</text>
    <text x="376" y="290" font-size="34" fill="#f6f8fc">+2.4%</text>
    <text x="616" y="248" font-size="15" fill="#8957e5">SHARPE</text>
    <text x="616" y="290" font-size="34" fill="#f6f8fc">1.8</text>
    <text x="856" y="248" font-size="15" fill="#8957e5">BETA</text>
    <text x="856" y="290" font-size="34" fill="#f6f8fc">0.45</text>
  </g>
  <rect x="112" y="366" width="588" height="180" fill="#0e1527" stroke="#30363d"/>
  <rect x="736" y="366" width="308" height="180" fill="#0e1527" stroke="#30363d"/>
  <polyline fill="none" stroke="#58a6ff" stroke-width="8" points="140,502 212,470 284,460 356,408 428,420 500,368 572,338 670,296"/>
  <g fill="#58a6ff">
    <circle cx="140" cy="502" r="7"/><circle cx="212" cy="470" r="7"/><circle cx="284" cy="460" r="7"/>
    <circle cx="356" cy="408" r="7"/><circle cx="428" cy="420" r="7"/><circle cx="500" cy="368" r="7"/>
    <circle cx="572" cy="338" r="7"/><circle cx="670" cy="296" r="7"/>
  </g>
  <g font-family="JetBrains Mono, monospace" font-size="16" fill="#dfe7f6">
    <text x="766" y="408">AAPL   +7.30</text>
    <text x="766" y="442">GOOGL  +4.70</text>
    <text x="766" y="476">TSLA  -12.00</text>
  </g>
  <text x="112" y="592" font-family="Iowan Old Style, Palatino Linotype, serif" font-size="44" fill="#f6f8fc">The dashboard should tell the story before the meeting begins.</text>
</svg>
